{
  "accessors": [
    {
      "bufferView": 2,
      "componentType": 5126,
      "count": 65532,
      "max": [
        0.33413401246070862,
        1.7786819934844971,
        0.16795599460601807
      ],
      "min": [
        -0.29859399795532227,
        1.3850430250167847,
        -0.17243899405002594
      ],
      "type": "VEC3"
    },
    {
      "bufferView": 2,
      "byteOffset": 786384,
      "componentType": 5126,
      "count": 65532,
      "max": [
        0.9999886155128479,
        0.9999767541885376,
        0.99997234344482422
      ],
      "min": [
        -0.99992924928665161,
        -0.99990177154541016,
        -0.99997764825820923
      ],
      "type": "VEC3"
    },
    {
      "bufferView": 3,
      "componentType": 5126,
      "count": 65532,
      "max": [
        0.99996000528335571,
        0.99999040365219116,
        0.99999409914016724,
        1
      ],
      "min": [
        -0.99991858005523682,
        -0.99995124340057373,
        -0.9999883770942688,
        -1
      ],
      "type": "VEC4"
    },
    {
      "bufferView": 1,
      "componentType": 5126,
      "count": 65532,
      "max": [
        0.99983501434326172,
        0.99709200859069824
      ],
      "min": [
        0.00031199998920783401,
        0
      ],
      "type": "VEC2"
    },
    {
      "bufferView": 0,
      "componentType": 5125,
      "count": 314607,
      "max": [
        65531
      ],
      "min": [
        0
      ],
      "type": "SCALAR"
    },
    {
      "bufferView": 2,
      "byteOffset": 1572768,
      "componentType": 5126,
      "count": 65532,
      "max": [
        0.33372798562049866,
        1.7635420560836792,
        0.17010800540447235
      ],
      "min": [
        -0.32330799102783203,
        1.3843510150909424,
        -0.16916799545288086
      ],
      "type": "VEC3"
    },
    {
      "bufferView": 2,
      "byteOffset": 2359152,
      "componentType": 5126,
      "count": 65532,
      "max": [
        0.99997204542160034,
        0.9999200701713562,
        0.99997234344482422
      ],
      "min": [
        -0.9999813437461853,
        -0.99997818470001221,
        -0.99997901916503906
      ],
      "type": "VEC3"
    },
    {
      "bufferView": 3,
      "byteOffset": 1048512,
      "componentType": 5126,
      "count": 65532,
      "max": [
        0.99987846612930298,
        0.99997150897979736,
        0.99998211860656738,
        1
      ],
      "min": [
        -0.99991858005523682,
        -0.99971139430999756,
        -0.99992412328720093,
        -1
      ],
      "type": "VEC4"
    },
    {
      "bufferView": 1,
      "byteOffset": 524256,
      "componentType": 5126,
      "count": 65532,
      "max": [
        0.99986898899078369,
        0.99691599607467651
      ],
      "min": [
        2.9000000722589903e-05,
        0.00061899999855086207
      ],
      "type": "VEC2"
    },
    {
      "bufferView": 0,
      "byteOffset": 1258428,
      "componentType": 5125,
      "count": 282090,
      "max": [
        65531
      ],
      "min": [
        0
      ],
      "type": "SCALAR"
    },
    {
      "bufferView": 2,
      "byteOffset": 3145536,
      "componentType": 5126,
      "count": 39199,
      "max": [
        0.32559698820114136,
        1.7682429552078247,
        0.17010800540447235
      ],
      "min": [
        -0.32509699463844299,
        1.3847379684448242,
        -0.17243899405002594
      ],
      "type": "VEC3"
    },
    {
      "bufferView": 2,
      "byteOffset": 3615924,
      "componentType": 5126,
      "count": 39199,
      "max": [
        1,
        0.99998050928115845,
        0.9999731183052063
      ],
      "min": [
        -0.99999618530273438,
        -0.99994426965713501,
        -0.99999904632568359
      ],
      "type": "VEC3"
    },
    {
      "bufferView": 3,
      "byteOffset": 2097024,
      "componentType": 5126,
      "count": 39199,
      "max": [
        0.9995008111000061,
        0.99995571374893188,
        0.99998307228088379,
        1
      ],
      "min": [
        -0.99999362230300903,
        -0.99996656179428101,
        -0.99990677833557129,
        -1
      ],
      "type": "VEC4"
    },
    {
      "bufferView": 1,
      "byteOffset": 1048512,
      "componentType": 5126,
      "count": 39199,
      "max": [
        1,
        0.99773699045181274
      ],
      "min": [
        0.010096999816596508,
        0.00085200002649798989
      ],
      "type": "VEC2"
    },
    {
      "bufferView": 0,
      "byteOffset": 2386788,
      "componentType": 5125,
      "count": 153303,
      "max": [
        39198
      ],
      "min": [
        0
      ],
      "type": "SCALAR"
    }
  ],
  "asset": {
    "extras": {
      "author": "Jack (https://sketchfab.com/stiky)",
      "license": "CC-BY-4.0 (http://creativecommons.org/licenses/by/4.0/)",
      "source": "https://sketchfab.com/models/052ebe6d108c4c43a24adab765e32c36",
      "title": "The Screaming Banshee"
    },
    "generator": "Sketchfab-3.19.7",
    "version": "2.0"
  },
  "bufferViews": [
    {
      "buffer": 0,
      "byteLength": 3000000,
      "byteOffset": 0,
      "name": "floatBufferViews",
      "target": 34963
    },
    {
      "buffer": 0,
      "byteLength": 1362104,
      "byteOffset": 3000000,
      "byteStride": 8,
      "name": "floatBufferViews",
      "target": 34962
    },
    {
      "buffer": 0,
      "byteLength": 4086312,
      "byteOffset": 4362104,
      "byteStride": 12,
      "name": "floatBufferViews",
      "target": 34962
    },
    {
      "buffer": 0,
      "byteLength": 2724208,
      "byteOffset": 8448416,
      "byteStride": 16,
      "name": "floatBufferViews",
      "target": 34962
    }
  ],
  "buffers": [
    {
      "byteLength": 11172624,
      "uri": "scene.bin"
    }
  ],
  "extensionsUsed": [
    "KHR_materials_unlit"
  ],
  "images": [
    {
      "uri": "textures/Banshee_baseColor.jpeg"
    }
  ],
  "materials": [
    {
      "doubleSided": true,
      "emissiveFactor": [
        0,
        0,
        0
      ],
      "extensions": {
        "KHR_materials_unlit": {}
      },
      "name": "Banshee",
      "pbrMetallicRoughness": {
        "baseColorFactor": [
          1,
          1,
          1,
          1
        ],
        "baseColorTexture": {
          "index": 0,
          "texCoord": 0
        },
        "metallicFactor": 0,
        "roughnessFactor": 1
      }
    }
  ],
  "meshes": [
    {
      "primitives": [
        {
          "attributes": {
            "NORMAL": 1,
            "POSITION": 0,
            "TANGENT": 2,
            "TEXCOORD_0": 3
          },
          "indices": 4,
          "material": 0,
          "mode": 4
        }
      ]
    },
    {
      "primitives": [
        {
          "attributes": {
            "NORMAL": 6,
            "POSITION": 5,
            "TANGENT": 7,
            "TEXCOORD_0": 8
          },
          "indices": 9,
          "material": 0,
          "mode": 4
        }
      ]
    },
    {
      "primitives": [
        {
          "attributes": {
            "NORMAL": 11,
            "POSITION": 10,
            "TANGENT": 12,
            "TEXCOORD_0": 13
          },
          "indices": 14,
          "material": 0,
          "mode": 4
        }
      ]
    }
  ],
  "nodes": [
    {
      "children": [
        1
      ],
      "name": "RootNode (gltf orientation matrix)",
      "rotation": [
        -0.70710678118654746,
        -0,
        -0,
        0.70710678118654757
      ]
    },
    {
      "children": [
        2
      ],
      "matrix": [
        0.4067956805229187,
        -0.9132155179977417,
        0.023552451282739639,
        0,
        0.91148728132247925,
        0.4074745774269104,
        0.056173015385866165,
        0,
        -0.060895092785358429,
        -0.0013831801479682326,
        0.99814319610595703,
        0,
        -1.4389210939407349,
        0.94121384620666504,
        -0.088947102427482605,
        1
      ],
      "name": "RootNode (model correction matrix)"
    },
    {
      "children": [
        3,
        4,
        5
      ],
      "name": "Banshee.obj.cleaner.materialmerger.gles"
    },
    {
      "mesh": 0,
      "name": ""
    },
    {
      "mesh": 1,
      "name": ""
    },
    {
      "mesh": 2,
      "name": ""
    }
  ],
  "samplers": [
    {
      "magFilter": 9729,
      "minFilter": 9987,
      "wrapS": 10497,
      "wrapT": 10497
    }
  ],
  "scene": 0,
  "scenes": [
    {
      "name": "OSG_Scene",
      "nodes": [
        0
      ]
    }
  ],
  "textures": [
    {
      "sampler": 0,
      "source": 0
    }
  ]
}

