{
  "accessors": [
    {
      "bufferView": 2,
      "componentType": 5126,
      "count": 3863,
      "max": [
        13.411530494689941,
        38.554580688476562,
        12.298069953918457
      ],
      "min": [
        -13.400603294372559,
        10.342006683349609,
        -18.400650024414062
      ],
      "type": "VEC3"
    },
    {
      "bufferView": 2,
      "byteOffset": 46356,
      "componentType": 5126,
      "count": 3863,
      "max": [
        1,
        1,
        1
      ],
      "min": [
        -1,
        -0.99928873777389526,
        -1
      ],
      "type": "VEC3"
    },
    {
      "bufferView": 3,
      "componentType": 5126,
      "count": 3863,
      "max": [
        1,
        0.99963253736495972,
        1,
        1
      ],
      "min": [
        -1,
        -0.9996941089630127,
        -1,
        1
      ],
      "type": "VEC4"
    },
    {
      "bufferView": 1,
      "componentType": 5126,
      "count": 3863,
      "max": [
        0.99820601940155029,
        0.99950051307678223
      ],
      "min": [
        0.00045782327651977539,
        0.00049948692321777344
      ],
      "type": "VEC2"
    },
    {
      "bufferView": 0,
      "componentType": 5125,
      "count": 12300,
      "max": [
        3862
      ],
      "min": [
        0
      ],
      "type": "SCALAR"
    },
    {
      "bufferView": 2,
      "byteOffset": 92712,
      "componentType": 5126,
      "count": 1343,
      "max": [
        17.990943908691406,
        38.231998443603516,
        10.465176582336426
      ],
      "min": [
        -18.008584976196289,
        0.0037240982055664062,
        -15.08885383605957
      ],
      "type": "VEC3"
    },
    {
      "bufferView": 2,
      "byteOffset": 108828,
      "componentType": 5126,
      "count": 1343,
      "max": [
        1,
        1,
        1
      ],
      "min": [
        -1,
        -1,
        -1
      ],
      "type": "VEC3"
    },
    {
      "bufferView": 3,
      "byteOffset": 61808,
      "componentType": 5126,
      "count": 1343,
      "max": [
        1,
        1,
        1,
        1
      ],
      "min": [
        -0.99976074695587158,
        -0.92865484952926636,
        -1,
        -1
      ],
      "type": "VEC4"
    },
    {
      "bufferView": 1,
      "byteOffset": 30904,
      "componentType": 5126,
      "count": 1343,
      "max": [
        0.9788055419921875,
        0.98533022403717041
      ],
      "min": [
        0.00048916880041360855,
        0.00049950182437896729
      ],
      "type": "VEC2"
    },
    {
      "bufferView": 0,
      "byteOffset": 49200,
      "componentType": 5125,
      "count": 4224,
      "max": [
        1342
      ],
      "min": [
        0
      ],
      "type": "SCALAR"
    }
  ],
  "asset": {
    "extras": {
      "author": "elouisetrewartha (https://sketchfab.com/etrewarthasae)",
      "license": "CC-BY-NC-4.0 (http://creativecommons.org/licenses/by-nc/4.0/)",
      "source": "https://sketchfab.com/models/5a9793175a0f4aeeb86095618778ae29",
      "title": "Open Medicine Box"
    },
    "generator": "Sketchfab-3.22.5",
    "version": "2.0"
  },
  "bufferViews": [
    {
      "buffer": 0,
      "byteLength": 66096,
      "byteOffset": 0,
      "name": "floatBufferViews",
      "target": 34963
    },
    {
      "buffer": 0,
      "byteLength": 41648,
      "byteOffset": 66096,
      "byteStride": 8,
      "name": "floatBufferViews",
      "target": 34962
    },
    {
      "buffer": 0,
      "byteLength": 124944,
      "byteOffset": 107744,
      "byteStride": 12,
      "name": "floatBufferViews",
      "target": 34962
    },
    {
      "buffer": 0,
      "byteLength": 83296,
      "byteOffset": 232688,
      "byteStride": 16,
      "name": "floatBufferViews",
      "target": 34962
    }
  ],
  "buffers": [
    {
      "byteLength": 315984,
      "uri": "scene.bin"
    }
  ],
  "images": [
    {
      "uri": "textures/medicineboxv3_box_blinn_baseColor.png"
    },
    {
      "uri": "textures/medicineboxv3_metal_blinn_baseColor.png"
    }
  ],
  "materials": [
    {
      "doubleSided": true,
      "emissiveFactor": [
        0,
        0,
        0
      ],
      "name": "medicineboxv3_metal_blinn",
      "pbrMetallicRoughness": {
        "baseColorFactor": [
          1,
          1,
          1,
          1
        ],
        "baseColorTexture": {
          "index": 1,
          "texCoord": 0
        },
        "metallicFactor": 0.29999999999999999,
        "roughnessFactor": 0.15000000000000002
      }
    },
    {
      "doubleSided": true,
      "emissiveFactor": [
        0,
        0,
        0
      ],
      "name": "medicineboxv3_box_blinn",
      "pbrMetallicRoughness": {
        "baseColorFactor": [
          1,
          1,
          1,
          1
        ],
        "baseColorTexture": {
          "index": 0,
          "texCoord": 0
        },
        "metallicFactor": 0,
        "roughnessFactor": 0.15000000000000002
      }
    }
  ],
  "meshes": [
    {
      "name": "opened_medicinebox_v3_uv_combined_mesh_result_medicineboxv3_metal_blinn_0",
      "primitives": [
        {
          "attributes": {
            "NORMAL": 1,
            "POSITION": 0,
            "TANGENT": 2,
            "TEXCOORD_0": 3
          },
          "indices": 4,
          "material": 0,
          "mode": 4
        }
      ]
    },
    {
      "name": "opened_medicinebox_v3_uv_combined_mesh_result_medicineboxv3_box_blinn_0",
      "primitives": [
        {
          "attributes": {
            "NORMAL": 6,
            "POSITION": 5,
            "TANGENT": 7,
            "TEXCOORD_0": 8
          },
          "indices": 9,
          "material": 1,
          "mode": 4
        }
      ]
    }
  ],
  "nodes": [
    {
      "children": [
        1
      ],
      "name": "RootNode (gltf orientation matrix)",
      "rotation": [
        -0.70710678118654746,
        -0,
        -0,
        0.70710678118654757
      ]
    },
    {
      "children": [
        2
      ],
      "name": "RootNode (model correction matrix)"
    },
    {
      "children": [
        3
      ],
      "matrix": [
        1,
        0,
        0,
        0,
        0,
        0,
        1,
        0,
        0,
        -1,
        0,
        0,
        0,
        0,
        0,
        1
      ],
      "name": "c9bdbf3ccf39474a8cc8dc8898cc5205.fbx"
    },
    {
      "children": [
        4
      ],
      "name": "RootNode"
    },
    {
      "children": [
        5,
        6
      ],
      "name": "opened_medicinebox_v3_uv_combined_mesh_result"
    },
    {
      "mesh": 0,
      "name": "opened_medicinebox_v3_uv_combined_mesh_result_medicineboxv3_metal_blinn_0"
    },
    {
      "mesh": 1,
      "name": "opened_medicinebox_v3_uv_combined_mesh_result_medicineboxv3_box_blinn_0"
    }
  ],
  "samplers": [
    {
      "magFilter": 9729,
      "minFilter": 9987,
      "wrapS": 10497,
      "wrapT": 10497
    }
  ],
  "scene": 0,
  "scenes": [
    {
      "name": "OSG_Scene",
      "nodes": [
        0
      ]
    }
  ],
  "textures": [
    {
      "sampler": 0,
      "source": 0
    },
    {
      "sampler": 0,
      "source": 1
    }
  ]
}

